<?xml version="1.0" standalone="no"?>
<!DOCTYPE svg PUBLIC "-//W3C//DTD SVG 20010904//EN"
 "http://www.w3.org/TR/2001/REC-SVG-20010904/DTD/svg10.dtd">
<svg version="1.0" xmlns="http://www.w3.org/2000/svg"
 width="512.000000pt" height="512.000000pt" viewBox="0 0 512.000000 512.000000"
 preserveAspectRatio="xMidYMid meet">

<g transform="translate(0.000000,512.000000) scale(0.100000,-0.100000)"
fill="#000000" stroke="none">
<path d="M357 4459 c-143 -34 -278 -160 -329 -306 l-23 -68 0 -1520 0 -1520
22 -71 c26 -81 88 -172 150 -222 23 -18 72 -47 110 -65 l68 -32 2205 0 2205 0
75 36 c128 62 212 156 256 289 18 52 19 129 22 1547 3 1631 5 1571 -55 1693
-39 81 -126 163 -220 208 l-78 37 -2185 2 c-1249 0 -2201 -3 -2223 -8z m4373
-299 c54 -28 83 -72 88 -138 4 -42 0 -64 -14 -90 -16 -29 -209 -162 -1096
-753 -721 -481 -1088 -720 -1112 -725 -20 -3 -52 -3 -72 0 -24 5 -391 244
-1112 725 -887 591 -1080 724 -1096 753 -14 26 -18 48 -14 90 5 65 33 110 86
138 36 19 79 19 2170 20 2105 0 2133 0 2172 -20z m-2379 -1951 c129 -65 289
-65 418 0 24 13 496 324 1048 692 l1003 669 -2 -1262 -3 -1263 -23 -33 c-13
-18 -41 -41 -62 -52 -39 -20 -67 -20 -2170 -20 -2103 0 -2131 0 -2170 20 -21
11 -49 34 -62 52 l-23 33 -3 1263 -2 1262 1003 -669 c552 -368 1024 -679 1048
-692z"/>
</g>
</svg>
