<?xml version="1.0" encoding="UTF-8"?>
<!DOCTYPE svg PUBLIC "-//W3C//DTD SVG 1.1//EN" "http://www.w3.org/Graphics/SVG/1.1/DTD/svg11.dtd">
<svg xmlns="http://www.w3.org/2000/svg" version="1.1" width="500px" height="500px" style="shape-rendering:geometricPrecision; text-rendering:geometricPrecision; image-rendering:optimizeQuality; fill-rule:evenodd; clip-rule:evenodd" xmlns:xlink="http://www.w3.org/1999/xlink">
<g><path style="opacity:1" fill="#e87265" d="M 324.5,-0.5 C 325.5,-0.5 326.5,-0.5 327.5,-0.5C 330.473,1.80617 333.14,4.47284 335.5,7.5C 332.099,5.11959 328.433,3.11959 324.5,1.5C 324.5,0.833333 324.5,0.166667 324.5,-0.5 Z"/></g>
<g><path style="opacity:0.443" fill="#f8a3a2" d="M 89.5,1.5 C 87.9674,3.24512 85.9674,4.24512 83.5,4.5C 85.0326,2.75488 87.0326,1.75488 89.5,1.5 Z"/></g>
<g><path style="opacity:0.839" fill="#ef867c" d="M 83.5,4.5 C 83.0269,5.90632 82.0269,6.57298 80.5,6.5C 80.9731,5.09368 81.9731,4.42702 83.5,4.5 Z"/></g>
<g><path style="opacity:1" fill="#e2635b" d="M 80.5,6.5 C 79.4154,8.58689 77.7488,9.92022 75.5,10.5C 76.5846,8.41311 78.2512,7.07978 80.5,6.5 Z"/></g>
<g><path style="opacity:1" fill="#e67368" d="M 335.5,7.5 C 337.167,8.5 338.5,9.83333 339.5,11.5C 336.858,11.5123 335.525,10.179 335.5,7.5 Z"/></g>
<g><path style="opacity:0.486" fill="#fca19f" d="M 75.5,10.5 C 74.8333,11.8333 73.8333,12.8333 72.5,13.5C 72.5,11.5 73.5,10.5 75.5,10.5 Z"/></g>
<g><path style="opacity:1" fill="#e80e0b" d="M 324.5,1.5 C 328.433,3.11959 332.099,5.11959 335.5,7.5C 335.525,10.179 336.858,11.5123 339.5,11.5C 341.806,15.8057 345.139,19.139 349.5,21.5C 351.833,25.8333 355.167,29.1667 359.5,31.5C 359.833,33.8333 361.167,35.1667 363.5,35.5C 363.525,38.179 364.858,39.5123 367.5,39.5C 367.833,41.8333 369.167,43.1667 371.5,43.5C 371.833,45.8333 373.167,47.1667 375.5,47.5C 376.5,50.5 378.5,52.5 381.5,53.5C 383.833,57.8333 387.167,61.1667 391.5,63.5C 393.167,67.1667 395.833,69.8333 399.5,71.5C 401.167,75.1667 403.833,77.8333 407.5,79.5C 407.525,82.179 408.858,83.5123 411.5,83.5C 411.525,86.179 412.858,87.5123 415.5,87.5C 415.833,89.8333 417.167,91.1667 419.5,91.5C 419.833,93.8333 421.167,95.1667 423.5,95.5C 424.833,98.8333 427.167,101.167 430.5,102.5C 431.419,105.089 433.086,107.089 435.5,108.5C 436.659,226.812 436.826,345.145 436,463.5C 435.802,465.382 435.302,467.048 434.5,468.5C 434.667,348.833 434.5,229.166 434,109.5C 431.914,106.96 430.414,107.127 429.5,110C 430.038,112.102 431.038,112.935 432.5,112.5C 429.223,113.529 426.89,112.362 425.5,109C 429.481,106.373 429.481,103.706 425.5,101C 423.423,100.808 421.423,100.308 419.5,99.5C 419.207,96.0932 417.873,93.2599 415.5,91C 413.195,92.349 410.529,93.1823 407.5,93.5C 407.657,94.8734 407.49,96.2068 407,97.5C 406.026,95.1224 405.359,95.4557 405,98.5C 403.455,97.1787 402.289,97.5121 401.5,99.5C 404.649,104.832 402.982,107.165 396.5,106.5C 380.068,108.201 363.735,107.701 347.5,105C 346.244,104.583 345.577,103.75 345.5,102.5C 363.76,103.652 382.093,103.819 400.5,103C 399.956,102.283 399.289,101.783 398.5,101.5C 376.868,79.368 355.035,57.368 333,35.5C 332.536,36.0944 332.369,36.7611 332.5,37.5C 331.833,51.5 331.167,65.5 330.5,79.5C 330.176,64.5884 330.509,49.755 331.5,35C 329.893,33.951 329.227,32.451 329.5,30.5C 327.208,30.2436 325.041,30.5769 323,31.5C 320.699,30.1328 318.199,29.4661 315.5,29.5C 315.319,51.5379 315.319,73.5379 315.5,95.5C 316.5,95.5 317.5,95.5 318.5,95.5C 318.579,96.9305 318.246,98.2638 317.5,99.5C 318.578,102.207 319.578,104.874 320.5,107.5C 316.318,103.042 313.984,97.7085 313.5,91.5C 313.667,68.1643 313.5,44.831 313,21.5C 312.617,20.944 312.117,20.6107 311.5,20.5C 311.5,20.1667 311.5,19.8333 311.5,19.5C 314.371,20.6787 317.204,20.6787 320,19.5C 320.14,17.4787 320.307,15.6453 320.5,14C 318.963,12.8904 318.297,11.3904 318.5,9.5C 321.979,10.4627 324.812,12.4627 327,15.5C 329.188,14.9407 329.854,13.6073 329,11.5C 326.022,9.68904 323.522,7.3557 321.5,4.5C 321.833,4.16667 322.167,3.83333 322.5,3.5C 324.79,4.74175 326.623,6.40842 328,8.5C 328.374,7.58377 328.874,6.75044 329.5,6C 327.76,4.48305 326.094,2.98305 324.5,1.5 Z"/></g>
<g><path style="opacity:0.737" fill="#f28f8a" d="M 339.5,11.5 C 343.167,14.5 346.5,17.8333 349.5,21.5C 345.139,19.139 341.806,15.8057 339.5,11.5 Z"/></g>
<g><path style="opacity:0.482" fill="#f69793" d="M 70.5,15.5 C 70.573,17.0269 69.9063,18.0269 68.5,18.5C 68.427,16.9731 69.0937,15.9731 70.5,15.5 Z"/></g>
<g><path style="opacity:1" fill="#d63026" d="M 311.5,19.5 C 311.5,19.8333 311.5,20.1667 311.5,20.5C 239.833,20.3333 168.166,20.5 96.5,21C 95.5842,21.2784 94.9175,21.7784 94.5,22.5C 90.1053,24.5622 87.1053,27.8955 85.5,32.5C 84.5,33.8333 83.5,35.1667 82.5,36.5C 83.5083,32.7971 84.8416,29.1304 86.5,25.5C 87.5237,24.1468 88.857,23.4802 90.5,23.5C 89.9079,19.926 91.4079,17.926 95,17.5C 167.264,18.1651 239.431,18.8318 311.5,19.5 Z"/></g>
<g><path style="opacity:1" fill="#ffd1d2" d="M 311.5,20.5 C 311.5,20.8333 311.5,21.1667 311.5,21.5C 239.144,21.1793 166.811,21.5126 94.5,22.5C 94.9175,21.7784 95.5842,21.2784 96.5,21C 168.166,20.5 239.833,20.3333 311.5,20.5 Z"/></g>
<g><path style="opacity:1" fill="#fefefe" d="M 311.5,21.5 C 311.333,43.5025 311.5,65.5025 312,87.5C 312.21,89.0581 312.71,90.3915 313.5,91.5C 313.984,97.7085 316.318,103.042 320.5,107.5C 327.004,116.313 335.67,121.98 346.5,124.5C 346.918,125.222 347.584,125.722 348.5,126C 370.497,126.5 392.497,126.667 414.5,126.5C 415.146,240.569 414.48,354.569 412.5,468.5C 412.5,469.167 412.5,469.833 412.5,470.5C 409.313,473.593 405.646,475.927 401.5,477.5C 299.852,478.829 198.185,478.829 96.5,477.5C 94.5168,476.529 92.5168,475.529 90.5,474.5C 89.8333,473.5 89.1667,472.5 88.5,471.5C 87.3465,468.521 86.1798,465.521 85,462.5C 84.1714,319.139 84.3381,175.806 85.5,32.5C 87.1053,27.8955 90.1053,24.5622 94.5,22.5C 166.811,21.5126 239.144,21.1793 311.5,21.5 Z"/></g>
<g><path style="opacity:0.733" fill="#f59a98" d="M 349.5,21.5 C 353.167,24.5 356.5,27.8333 359.5,31.5C 355.167,29.1667 351.833,25.8333 349.5,21.5 Z"/></g>
<g><path style="opacity:1" fill="#f17b78" d="M 68.5,18.5 C 66.7358,23.6802 64.7358,28.6802 62.5,33.5C 62.9564,27.7803 64.9564,22.7803 68.5,18.5 Z"/></g>
<g><path style="opacity:1" fill="#de4336" d="M 311.5,20.5 C 312.117,20.6107 312.617,20.944 313,21.5C 313.5,44.831 313.667,68.1643 313.5,91.5C 312.71,90.3915 312.21,89.0581 312,87.5C 311.5,65.5025 311.333,43.5025 311.5,21.5C 311.5,21.1667 311.5,20.8333 311.5,20.5 Z"/></g>
<g><path style="opacity:0.749" fill="#f49c9a" d="M 359.5,31.5 C 361.167,32.5 362.5,33.8333 363.5,35.5C 361.167,35.1667 359.833,33.8333 359.5,31.5 Z"/></g>
<g><path style="opacity:1" fill="#e7706b" d="M 363.5,35.5 C 365.167,36.5 366.5,37.8333 367.5,39.5C 364.858,39.5123 363.525,38.179 363.5,35.5 Z"/></g>
<g><path style="opacity:1" fill="#fefaf9" d="M 398.5,101.5 C 382.672,102.661 366.672,102.828 350.5,102C 347.983,99.7492 344.983,98.9159 341.5,99.5C 339.833,98.1667 338.167,96.8333 336.5,95.5C 335.062,92.2843 333.895,88.951 333,85.5C 332.5,69.5035 332.333,53.5035 332.5,37.5C 332.369,36.7611 332.536,36.0944 333,35.5C 355.035,57.368 376.868,79.368 398.5,101.5 Z"/></g>
<g><path style="opacity:0.769" fill="#f1a099" d="M 367.5,39.5 C 369.167,40.5 370.5,41.8333 371.5,43.5C 369.167,43.1667 367.833,41.8333 367.5,39.5 Z"/></g>
<g><path style="opacity:0.765" fill="#f19e9b" d="M 371.5,43.5 C 373.167,44.5 374.5,45.8333 375.5,47.5C 373.167,47.1667 371.833,45.8333 371.5,43.5 Z"/></g>
<g><path style="opacity:1" fill="#cb1a1a" d="M 332.5,37.5 C 332.333,53.5035 332.5,69.5035 333,85.5C 333.895,88.951 335.062,92.2843 336.5,95.5C 335.265,95.2786 334.265,94.6119 333.5,93.5C 331.042,89.2041 330.042,84.5375 330.5,79.5C 331.167,65.5 331.833,51.5 332.5,37.5 Z"/></g>
<g><path style="opacity:0.765" fill="#f39d9a" d="M 375.5,47.5 C 377.833,49.1667 379.833,51.1667 381.5,53.5C 378.5,52.5 376.5,50.5 375.5,47.5 Z"/></g>
<g><path style="opacity:0.796" fill="#f59896" d="M 381.5,53.5 C 385.167,56.5 388.5,59.8333 391.5,63.5C 387.167,61.1667 383.833,57.8333 381.5,53.5 Z"/></g>
<g><path style="opacity:0.765" fill="#f59997" d="M 391.5,63.5 C 394.5,65.8333 397.167,68.5 399.5,71.5C 395.833,69.8333 393.167,67.1667 391.5,63.5 Z"/></g>
<g><path style="opacity:0.753" fill="#f39e9a" d="M 399.5,71.5 C 402.5,73.8333 405.167,76.5 407.5,79.5C 403.833,77.8333 401.167,75.1667 399.5,71.5 Z"/></g>
<g><path style="opacity:1" fill="#e7726a" d="M 407.5,79.5 C 409.167,80.5 410.5,81.8333 411.5,83.5C 408.858,83.5123 407.525,82.179 407.5,79.5 Z"/></g>
<g><path style="opacity:1" fill="#e8716d" d="M 411.5,83.5 C 413.167,84.5 414.5,85.8333 415.5,87.5C 412.858,87.5123 411.525,86.179 411.5,83.5 Z"/></g>
<g><path style="opacity:0.745" fill="#f3a19b" d="M 415.5,87.5 C 417.167,88.5 418.5,89.8333 419.5,91.5C 417.167,91.1667 415.833,89.8333 415.5,87.5 Z"/></g>
<g><path style="opacity:0.749" fill="#f29e9c" d="M 419.5,91.5 C 421.167,92.5 422.5,93.8333 423.5,95.5C 421.167,95.1667 419.833,93.8333 419.5,91.5 Z"/></g>
<g><path style="opacity:0.757" fill="#f39a98" d="M 423.5,95.5 C 426.167,97.5 428.5,99.8333 430.5,102.5C 427.167,101.167 424.833,98.8333 423.5,95.5 Z"/></g>
<g><path style="opacity:0.796" fill="#f79897" d="M 430.5,102.5 C 432.914,103.911 434.581,105.911 435.5,108.5C 433.086,107.089 431.419,105.089 430.5,102.5 Z"/></g>
<g><path style="opacity:0.523" fill="#fe7f7e" d="M 62.5,33.5 C 62.3333,176.834 62.5,320.167 63,463.5C 63.6711,467.676 64.8377,471.676 66.5,475.5C 67.2341,476.708 67.5674,478.041 67.5,479.5C 64.8094,475.278 62.9761,470.612 62,465.5C 61.1672,321.333 61.3339,177.333 62.5,33.5 Z"/></g>
<g><path style="opacity:0.53" fill="#fe807e" d="M 435.5,108.5 C 436.222,108.918 436.722,109.584 437,110.5C 437.667,228.833 437.667,347.167 437,465.5C 436.208,470.407 434.374,474.741 431.5,478.5C 432.901,475.296 433.901,471.963 434.5,468.5C 435.302,467.048 435.802,465.382 436,463.5C 436.826,345.145 436.659,226.812 435.5,108.5 Z"/></g>
<g><path style="opacity:1" fill="#ee0707" d="M 93.5,-0.5 C 170.5,-0.5 247.5,-0.5 324.5,-0.5C 324.5,0.166667 324.5,0.833333 324.5,1.5C 326.094,2.98305 327.76,4.48305 329.5,6C 328.874,6.75044 328.374,7.58377 328,8.5C 326.623,6.40842 324.79,4.74175 322.5,3.5C 322.167,3.83333 321.833,4.16667 321.5,4.5C 323.522,7.3557 326.022,9.68904 329,11.5C 329.854,13.6073 329.188,14.9407 327,15.5C 324.812,12.4627 321.979,10.4627 318.5,9.5C 318.297,11.3904 318.963,12.8904 320.5,14C 320.307,15.6453 320.14,17.4787 320,19.5C 317.204,20.6787 314.371,20.6787 311.5,19.5C 239.431,18.8318 167.264,18.1651 95,17.5C 91.4079,17.926 89.9079,19.926 90.5,23.5C 88.857,23.4802 87.5237,24.1468 86.5,25.5C 84.8416,29.1304 83.5083,32.7971 82.5,36.5C 81.1667,107.164 80.5,178.164 80.5,249.5C 80.5,320.667 80.8333,391.667 81.5,462.5C 82.5563,465.861 83.5563,469.194 84.5,472.5C 86.6854,472.704 88.6854,473.37 90.5,474.5C 92.5168,475.529 94.5168,476.529 96.5,477.5C 96.5,477.833 96.5,478.167 96.5,478.5C 96.9175,479.222 97.5842,479.722 98.5,480C 199.5,480.667 300.5,480.667 401.5,480C 406.904,478.758 410.571,475.591 412.5,470.5C 414.074,470.063 415.241,469.063 416,467.5C 416.794,464.529 417.461,461.529 418,458.5C 418.17,347.639 418.67,236.806 419.5,126C 418.728,124.779 417.728,123.779 416.5,123C 392.167,122.667 367.833,122.333 343.5,122C 340.933,119.903 337.933,118.57 334.5,118C 335.624,117.751 336.624,117.251 337.5,116.5C 336.609,115.41 335.609,115.41 334.5,116.5C 333.756,115.009 333.09,113.509 332.5,112C 327.894,114.525 325.227,113.025 324.5,107.5C 323.167,107.5 321.833,107.5 320.5,107.5C 319.578,104.874 318.578,102.207 317.5,99.5C 318.246,98.2638 318.579,96.9305 318.5,95.5C 317.5,95.5 316.5,95.5 315.5,95.5C 315.319,73.5379 315.319,51.5379 315.5,29.5C 318.199,29.4661 320.699,30.1328 323,31.5C 325.041,30.5769 327.208,30.2436 329.5,30.5C 329.227,32.451 329.893,33.951 331.5,35C 330.509,49.755 330.176,64.5884 330.5,79.5C 330.042,84.5375 331.042,89.2041 333.5,93.5C 334.265,94.6119 335.265,95.2786 336.5,95.5C 338.167,96.8333 339.833,98.1667 341.5,99.5C 342.436,100.974 343.77,101.974 345.5,102.5C 345.577,103.75 346.244,104.583 347.5,105C 363.735,107.701 380.068,108.201 396.5,106.5C 402.982,107.165 404.649,104.832 401.5,99.5C 402.289,97.5121 403.455,97.1787 405,98.5C 405.359,95.4557 406.026,95.1224 407,97.5C 407.49,96.2068 407.657,94.8734 407.5,93.5C 410.529,93.1823 413.195,92.349 415.5,91C 417.873,93.2599 419.207,96.0932 419.5,99.5C 421.423,100.308 423.423,100.808 425.5,101C 429.481,103.706 429.481,106.373 425.5,109C 426.89,112.362 429.223,113.529 432.5,112.5C 431.038,112.935 430.038,112.102 429.5,110C 430.414,107.127 431.914,106.96 434,109.5C 434.5,229.166 434.667,348.833 434.5,468.5C 433.901,471.963 432.901,475.296 431.5,478.5C 431.672,479.492 431.338,480.158 430.5,480.5C 429.833,480.833 429.167,481.167 428.5,481.5C 427.842,480.602 427.176,479.602 426.5,478.5C 426.167,478.667 425.833,478.833 425.5,479C 426.406,480.699 426.739,482.533 426.5,484.5C 425.178,484.67 424.011,484.337 423,483.5C 422.383,484.449 422.549,485.282 423.5,486C 422.167,486.333 420.833,486.667 419.5,487C 420.38,488.356 420.714,489.856 420.5,491.5C 420.158,492.338 419.492,492.672 418.5,492.5C 412.833,493.887 407.166,495.387 401.5,497C 400.244,497.417 399.577,498.25 399.5,499.5C 298.833,499.5 198.167,499.5 97.5,499.5C 94.4954,497.723 91.1621,496.723 87.5,496.5C 85.847,496.34 84.5137,495.674 83.5,494.5C 83.0269,493.094 82.0269,492.427 80.5,492.5C 75.4908,486.965 70.8241,481.298 66.5,475.5C 64.8377,471.676 63.6711,467.676 63,463.5C 62.5,320.167 62.3333,176.834 62.5,33.5C 64.7358,28.6802 66.7358,23.6802 68.5,18.5C 69.9063,18.0269 70.573,17.0269 70.5,15.5C 70.8333,14.5 71.5,13.8333 72.5,13.5C 73.8333,12.8333 74.8333,11.8333 75.5,10.5C 77.7488,9.92022 79.4154,8.58689 80.5,6.5C 82.0269,6.57298 83.0269,5.90632 83.5,4.5C 85.9674,4.24512 87.9674,3.24512 89.5,1.5C 90.8333,0.833333 92.1667,0.166667 93.5,-0.5 Z"/></g>
<g><path style="opacity:1" fill="#d51514" d="M 320.5,107.5 C 321.833,107.5 323.167,107.5 324.5,107.5C 325.227,113.025 327.894,114.525 332.5,112C 333.09,113.509 333.756,115.009 334.5,116.5C 335.609,115.41 336.609,115.41 337.5,116.5C 336.624,117.251 335.624,117.751 334.5,118C 337.933,118.57 340.933,119.903 343.5,122C 367.833,122.333 392.167,122.667 416.5,123C 417.728,123.779 418.728,124.779 419.5,126C 418.67,236.806 418.17,347.639 418,458.5C 417.461,461.529 416.794,464.529 416,467.5C 415.241,469.063 414.074,470.063 412.5,470.5C 412.5,469.833 412.5,469.167 412.5,468.5C 414.163,466.507 415.33,464.174 416,461.5C 416.5,349.167 416.667,236.834 416.5,124.5C 393.167,124.5 369.833,124.5 346.5,124.5C 335.67,121.98 327.004,116.313 320.5,107.5 Z"/></g>
<g><path style="opacity:1" fill="#ffd9d7" d="M 346.5,124.5 C 369.833,124.5 393.167,124.5 416.5,124.5C 416.667,236.834 416.5,349.167 416,461.5C 415.33,464.174 414.163,466.507 412.5,468.5C 414.48,354.569 415.146,240.569 414.5,126.5C 392.497,126.667 370.497,126.5 348.5,126C 347.584,125.722 346.918,125.222 346.5,124.5 Z"/></g>
<g><path style="opacity:1" fill="#fed3d1" d="M 341.5,99.5 C 344.983,98.9159 347.983,99.7492 350.5,102C 366.672,102.828 382.672,102.661 398.5,101.5C 399.289,101.783 399.956,102.283 400.5,103C 382.093,103.819 363.76,103.652 345.5,102.5C 343.77,101.974 342.436,100.974 341.5,99.5 Z"/></g>
<g><path style="opacity:1" fill="#c71819" d="M 82.5,39.5 C 82.3333,180.167 82.5,320.834 83,461.5C 84.0859,465.346 85.9193,468.68 88.5,471.5C 89.1667,472.5 89.8333,473.5 90.5,474.5C 88.6854,473.37 86.6854,472.704 84.5,472.5C 83.5563,469.194 82.5563,465.861 81.5,462.5C 81.1671,321.332 81.5004,180.332 82.5,39.5 Z"/></g>
<g><path style="opacity:1" fill="#ffd6d6" d="M 85.5,32.5 C 84.3381,175.806 84.1714,319.139 85,462.5C 86.1798,465.521 87.3465,468.521 88.5,471.5C 85.9193,468.68 84.0859,465.346 83,461.5C 82.5,320.834 82.3333,180.167 82.5,39.5C 82.5,38.5 82.5,37.5 82.5,36.5C 83.5,35.1667 84.5,33.8333 85.5,32.5 Z"/></g>
<g><path style="opacity:1" fill="#df0b08" d="M 82.5,36.5 C 82.5,37.5 82.5,38.5 82.5,39.5C 81.5004,180.332 81.1671,321.332 81.5,462.5C 80.8333,391.667 80.5,320.667 80.5,249.5C 80.5,178.164 81.1667,107.164 82.5,36.5 Z"/></g>
<g><path style="opacity:1" fill="#d3201f" d="M 259.5,172.5 C 248.505,168.44 237.172,167.44 225.5,169.5C 227.148,168.073 229.148,167.24 231.5,167C 239.651,166.009 247.651,166.676 255.5,169C 257.093,169.949 258.426,171.115 259.5,172.5 Z"/></g>
<g><path style="opacity:1" fill="#db3b33" d="M 261.5,174.5 C 265.722,178.134 268.056,182.801 268.5,188.5C 265.71,184.254 263.377,179.587 261.5,174.5 Z"/></g>
<g><path style="opacity:1" fill="#eb6867" d="M 209.5,192.5 C 208.946,199.153 208.612,205.82 208.5,212.5C 207.196,205.776 207.529,199.109 209.5,192.5 Z"/></g>
<g><path style="opacity:1" fill="#df1613" d="M 222.5,171.5 C 220.033,174.481 217.699,177.481 215.5,180.5C 214.448,182.542 213.781,184.708 213.5,187C 213.755,188.326 214.422,189.326 215.5,190C 214.54,191.419 213.707,192.919 213,194.5C 212.333,195.833 211.667,195.833 211,194.5C 210.333,202.833 210.333,211.167 211,219.5C 212.435,223.769 214.101,224.102 216,220.5C 216.694,224.002 216.194,227.336 214.5,230.5C 215.242,233.385 216.576,235.885 218.5,238C 218.943,239.825 219.277,241.658 219.5,243.5C 213.275,234.164 209.608,223.83 208.5,212.5C 208.612,205.82 208.946,199.153 209.5,192.5C 210.437,187.19 212.271,182.19 215,177.5C 217.106,174.882 219.606,172.882 222.5,171.5 Z"/></g>
<g><path style="opacity:1" fill="#ed0a09" d="M 259.5,172.5 C 260.5,172.833 261.167,173.5 261.5,174.5C 263.377,179.587 265.71,184.254 268.5,188.5C 269.29,189.609 269.79,190.942 270,192.5C 270.667,200.167 270.667,207.833 270,215.5C 266.435,228.948 262.602,242.281 258.5,255.5C 257.883,255.611 257.383,255.944 257,256.5C 255.761,262.453 257.928,266.787 263.5,269.5C 265.374,273.22 267.874,276.554 271,279.5C 273.086,281.437 275.252,283.104 277.5,284.5C 285.208,291.543 293.208,298.21 301.5,304.5C 305.598,305.823 309.598,305.489 313.5,303.5C 328.905,300.637 344.238,300.97 359.5,304.5C 362.524,306.013 365.191,308.013 367.5,310.5C 369.61,313.975 371.443,317.642 373,321.5C 373.498,324.817 373.665,328.15 373.5,331.5C 373.45,339.192 370.117,344.859 363.5,348.5C 357.455,350.055 349.955,351.055 341,351.5C 337.57,351.034 334.403,349.868 331.5,348C 330.167,347.333 330.167,346.667 331.5,346C 328.854,345.503 326.187,345.336 323.5,345.5C 323.66,343.801 323.494,342.134 323,340.5C 322.667,340.833 322.333,341.167 322,341.5C 318.852,339.334 315.352,338.001 311.5,337.5C 308.467,335.984 305.8,333.984 303.5,331.5C 302.375,329.871 301.041,328.371 299.5,327C 292.118,324.953 284.618,323.786 277,323.5C 276.167,323.833 275.333,324.167 274.5,324.5C 275.024,326.453 276.024,328.12 277.5,329.5C 268.691,332.285 259.691,334.285 250.5,335.5C 249.807,336.518 249.141,337.518 248.5,338.5C 241.321,341.299 233.988,343.799 226.5,346C 216.614,366.744 203.281,385.077 186.5,401C 182.5,404 178.5,407 174.5,410C 170.771,412.231 166.771,413.731 162.5,414.5C 157.156,414.666 151.823,414.499 146.5,414C 144.091,412.293 141.425,411.46 138.5,411.5C 136.973,411.573 135.973,410.906 135.5,409.5C 133.068,406.974 131.402,403.974 130.5,400.5C 129.808,401.025 129.308,401.692 129,402.5C 126.265,397.556 125.099,392.223 125.5,386.5C 125.933,381.633 127.933,377.633 131.5,374.5C 134.075,373.272 136.408,371.605 138.5,369.5C 140.813,368.727 143.146,368.06 145.5,367.5C 147.022,362.597 150.355,360.263 155.5,360.5C 155.5,359.5 155.5,358.5 155.5,357.5C 173.057,348.021 191.057,339.187 209.5,331C 214.59,320.893 218.59,310.393 221.5,299.5C 223.897,296.691 225.23,293.358 225.5,289.5C 228.069,282.971 230.569,276.304 233,269.5C 233.78,267.613 233.613,265.946 232.5,264.5C 227.404,257.975 223.071,250.975 219.5,243.5C 219.277,241.658 218.943,239.825 218.5,238C 216.576,235.885 215.242,233.385 214.5,230.5C 216.194,227.336 216.694,224.002 216,220.5C 214.101,224.102 212.435,223.769 211,219.5C 210.333,211.167 210.333,202.833 211,194.5C 211.667,195.833 212.333,195.833 213,194.5C 213.707,192.919 214.54,191.419 215.5,190C 214.422,189.326 213.755,188.326 213.5,187C 213.781,184.708 214.448,182.542 215.5,180.5C 217.699,177.481 220.033,174.481 222.5,171.5C 222.973,170.094 223.973,169.427 225.5,169.5C 237.172,167.44 248.505,168.44 259.5,172.5 Z"/></g>
<g><path style="opacity:1" fill="#d64846" d="M 246.5,223.5 C 246.59,226.152 245.924,228.485 244.5,230.5C 244.41,227.848 245.076,225.515 246.5,223.5 Z"/></g>
<g><path style="opacity:1" fill="#f88986" d="M 230.5,191.5 C 230.833,191.5 231.167,191.5 231.5,191.5C 228.579,202.265 228.913,212.931 232.5,223.5C 230.689,221.615 229.522,219.281 229,216.5C 228.006,208.03 228.506,199.697 230.5,191.5 Z"/></g>
<g><path style="opacity:1" fill="#fdf9f8" d="M 244.5,187.5 C 246.144,188.316 247.31,189.65 248,191.5C 248.985,195.264 249.485,199.097 249.5,203C 249.081,209.928 248.081,216.761 246.5,223.5C 245.076,225.515 244.41,227.848 244.5,230.5C 243.067,233.282 241.9,236.282 241,239.5C 237.375,234.584 234.542,229.25 232.5,223.5C 228.913,212.931 228.579,202.265 231.5,191.5C 232.29,190.206 233.29,189.039 234.5,188C 237.817,187.502 241.15,187.335 244.5,187.5 Z"/></g>
<g><path style="opacity:1" fill="#e63f39" d="M 244.5,187.5 C 241.15,187.335 237.817,187.502 234.5,188C 233.29,189.039 232.29,190.206 231.5,191.5C 231.167,191.5 230.833,191.5 230.5,191.5C 229.766,190.292 229.433,188.959 229.5,187.5C 234.653,186.381 239.653,186.381 244.5,187.5 Z"/></g>
<g><path style="opacity:1" fill="#e04f4a" d="M 258.5,255.5 C 257.61,257.782 257.444,260.115 258,262.5C 260.454,264.441 262.287,266.775 263.5,269.5C 257.928,266.787 255.761,262.453 257,256.5C 257.383,255.944 257.883,255.611 258.5,255.5 Z"/></g>
<g><path style="opacity:1" fill="#e95e57" d="M 232.5,264.5 C 233.613,265.946 233.78,267.613 233,269.5C 230.569,276.304 228.069,282.971 225.5,289.5C 227.628,281.115 229.961,272.782 232.5,264.5 Z"/></g>
<g><path style="opacity:1" fill="#da2e28" d="M 263.5,269.5 C 268.872,273.97 273.539,278.97 277.5,284.5C 275.252,283.104 273.086,281.437 271,279.5C 267.874,276.554 265.374,273.22 263.5,269.5 Z"/></g>
<g><path style="opacity:1" fill="#e5625a" d="M 225.5,289.5 C 225.23,293.358 223.897,296.691 221.5,299.5C 222.267,295.851 223.6,292.518 225.5,289.5 Z"/></g>
<g><path style="opacity:1" fill="#fdf7f6" d="M 259.5,294.5 C 262.167,297.833 265.167,300.833 268.5,303.5C 269.585,305.587 271.251,306.92 273.5,307.5C 274.85,308.824 274.683,309.824 273,310.5C 269.291,311.199 265.791,312.199 262.5,313.5C 259.848,313.41 257.515,314.076 255.5,315.5C 253.901,315.232 252.568,315.566 251.5,316.5C 246.835,317.057 242.502,318.39 238.5,320.5C 237.903,320.265 237.57,319.765 237.5,319C 240.74,307.688 244.407,296.521 248.5,285.5C 249.002,284.479 249.668,284.312 250.5,285C 253.001,288.667 256.001,291.834 259.5,294.5 Z"/></g>
<g><path style="opacity:1" fill="#e32018" d="M 259.5,294.5 C 261.606,295.783 263.94,296.616 266.5,297C 265.631,298.465 266.131,299.631 268,300.5C 269.261,300.241 270.261,299.574 271,298.5C 271.038,303.319 272.705,303.653 276,299.5C 279.247,300.644 279.081,301.644 275.5,302.5C 274.998,303.716 274.665,304.883 274.5,306C 276.886,305.649 279.219,305.815 281.5,306.5C 280.092,307.243 278.759,308.077 277.5,309C 277.957,309.414 278.291,309.914 278.5,310.5C 273.677,312.578 268.677,314.078 263.5,315C 262.333,316.167 261.167,317.333 260,318.5C 256.29,318.177 252.457,318.177 248.5,318.5C 249.5,317.833 250.5,317.167 251.5,316.5C 252.568,315.566 253.901,315.232 255.5,315.5C 258.152,315.59 260.485,314.924 262.5,313.5C 265.791,312.199 269.291,311.199 273,310.5C 274.683,309.824 274.85,308.824 273.5,307.5C 272.415,305.413 270.749,304.08 268.5,303.5C 265.167,300.833 262.167,297.833 259.5,294.5 Z"/></g>
<g><path style="opacity:1" fill="#ffdcdb" d="M 359.5,304.5 C 344.238,300.97 328.905,300.637 313.5,303.5C 312.833,303.5 312.167,303.5 311.5,303.5C 313.158,302.819 314.825,301.985 316.5,301C 329.539,300.733 342.539,300.566 355.5,300.5C 357.373,300.482 357.706,300.982 356.5,302C 358.119,302.236 359.119,303.069 359.5,304.5 Z"/></g>
<g><path style="opacity:1" fill="#e35b5d" d="M 268.5,303.5 C 270.749,304.08 272.415,305.413 273.5,307.5C 271.251,306.92 269.585,305.587 268.5,303.5 Z"/></g>
<g><path style="opacity:1" fill="#e1645f" d="M 311.5,303.5 C 312.167,303.5 312.833,303.5 313.5,303.5C 309.598,305.489 305.598,305.823 301.5,304.5C 304.881,304.54 308.214,304.207 311.5,303.5 Z"/></g>
<g><path style="opacity:1" fill="#e6686a" d="M 262.5,313.5 C 260.485,314.924 258.152,315.59 255.5,315.5C 257.515,314.076 259.848,313.41 262.5,313.5 Z"/></g>
<g><path style="opacity:1" fill="#e35550" d="M 251.5,316.5 C 250.5,317.167 249.5,317.833 248.5,318.5C 245.211,319.374 241.877,320.041 238.5,320.5C 242.502,318.39 246.835,317.057 251.5,316.5 Z"/></g>
<g><path style="opacity:1" fill="#cd2e2b" d="M 367.5,310.5 C 374.221,316.154 376.221,323.154 373.5,331.5C 373.665,328.15 373.498,324.817 373,321.5C 371.443,317.642 369.61,313.975 367.5,310.5 Z"/></g>
<g><path style="opacity:1" fill="#de1e19" d="M 303.5,331.5 C 301.059,329.729 298.393,328.395 295.5,327.5C 288.346,329.06 281.346,330.726 274.5,332.5C 265.804,334.372 257.138,336.372 248.5,338.5C 249.141,337.518 249.807,336.518 250.5,335.5C 259.691,334.285 268.691,332.285 277.5,329.5C 276.024,328.12 275.024,326.453 274.5,324.5C 275.333,324.167 276.167,323.833 277,323.5C 284.618,323.786 292.118,324.953 299.5,327C 301.041,328.371 302.375,329.871 303.5,331.5 Z"/></g>
<g><path style="opacity:1" fill="#ffe7e3" d="M 303.5,331.5 C 305.8,333.984 308.467,335.984 311.5,337.5C 311.5,337.833 311.5,338.167 311.5,338.5C 310.417,338.539 309.417,338.873 308.5,339.5C 306.796,336.799 304.463,334.799 301.5,333.5C 299.167,334.5 298.5,333.833 299.5,331.5C 298.562,330.447 297.395,329.78 296,329.5C 289.284,331.435 282.117,332.435 274.5,332.5C 281.346,330.726 288.346,329.06 295.5,327.5C 298.393,328.395 301.059,329.729 303.5,331.5 Z"/></g>
<g><path style="opacity:1" fill="#df211b" d="M 345.5,322.5 C 339.491,322.334 333.491,322.501 327.5,323C 328.373,324.045 329.373,324.878 330.5,325.5C 335.275,328.806 340.441,331.139 346,332.5C 351.426,333.075 353.759,330.742 353,325.5C 352.329,324.748 351.496,324.414 350.5,324.5C 349.5,323.833 348.5,323.167 347.5,322.5C 350.746,322.135 353.412,323.135 355.5,325.5C 356.086,325.291 356.586,324.957 357,324.5C 357.537,327.187 357.037,329.687 355.5,332C 356.973,332.71 357.64,333.876 357.5,335.5C 348.373,335.612 339.707,333.778 331.5,330C 330.239,327.465 328.239,325.798 325.5,325C 325.509,323.27 325.842,321.437 326.5,319.5C 333,320.204 339.334,321.204 345.5,322.5 Z"/></g>
<g><path style="opacity:1" fill="#fdf6f4" d="M 350.5,324.5 C 351.496,324.414 352.329,324.748 353,325.5C 353.759,330.742 351.426,333.075 346,332.5C 340.441,331.139 335.275,328.806 330.5,325.5C 332.743,324.188 335.41,323.522 338.5,323.5C 342.525,323.668 346.525,324.001 350.5,324.5 Z"/></g>
<g><path style="opacity:1" fill="#ffbfc0" d="M 345.5,322.5 C 346.167,322.5 346.833,322.5 347.5,322.5C 348.5,323.167 349.5,323.833 350.5,324.5C 346.525,324.001 342.525,323.668 338.5,323.5C 335.41,323.522 332.743,324.188 330.5,325.5C 329.373,324.878 328.373,324.045 327.5,323C 333.491,322.501 339.491,322.334 345.5,322.5 Z"/></g>
<g><path style="opacity:1" fill="#dc2f2a" d="M 311.5,338.5 C 311.5,338.167 311.5,337.833 311.5,337.5C 315.352,338.001 318.852,339.334 322,341.5C 322.333,341.167 322.667,340.833 323,340.5C 323.494,342.134 323.66,343.801 323.5,345.5C 319.517,343.194 315.517,340.861 311.5,338.5 Z"/></g>
<g><path style="opacity:1" fill="#e12620" d="M 323.5,345.5 C 326.187,345.336 328.854,345.503 331.5,346C 330.167,346.667 330.167,347.333 331.5,348C 334.403,349.868 337.57,351.034 341,351.5C 349.955,351.055 357.455,350.055 363.5,348.5C 361.819,350.008 359.819,351.008 357.5,351.5C 355.102,351.259 353.102,351.926 351.5,353.5C 340.917,354.857 331.583,352.19 323.5,345.5 Z"/></g>
<g><path style="opacity:1" fill="#f9a3a2" d="M 357.5,351.5 C 355.898,353.074 353.898,353.741 351.5,353.5C 353.102,351.926 355.102,351.259 357.5,351.5 Z"/></g>
<g><path style="opacity:1" fill="#de2720" d="M 155.5,357.5 C 155.5,358.5 155.5,359.5 155.5,360.5C 150.355,360.263 147.022,362.597 145.5,367.5C 143.146,368.06 140.813,368.727 138.5,369.5C 136.408,371.605 134.075,373.272 131.5,374.5C 135.045,369.789 139.379,365.955 144.5,363C 147.91,360.628 151.577,358.795 155.5,357.5 Z"/></g>
<g><path style="opacity:1" fill="#fdf3f1" d="M 146.5,388.5 C 155.071,381.252 164.404,375.252 174.5,370.5C 180.146,368.261 185.646,365.594 191,362.5C 183.65,376.517 172.817,387.35 158.5,395C 154.247,395.833 150.247,395.166 146.5,393C 145.272,391.51 145.272,390.01 146.5,388.5 Z"/></g>
<g><path style="opacity:1" fill="#e12720" d="M 174.5,370.5 C 164.404,375.252 155.071,381.252 146.5,388.5C 145.769,386.401 145.769,384.401 146.5,382.5C 147.736,383.246 149.07,383.579 150.5,383.5C 150.433,380.234 152.099,378.734 155.5,379C 155.381,377.719 155.881,376.552 157,375.5C 157.725,376.059 158.558,376.392 159.5,376.5C 160.068,374.958 161.735,374.125 164.5,374C 163.376,373.751 162.376,373.251 161.5,372.5C 165.894,372.834 170.227,372.168 174.5,370.5 Z"/></g>
<g><path style="opacity:1" fill="#d82521" d="M 125.5,386.5 C 125.099,392.223 126.265,397.556 129,402.5C 129.308,401.692 129.808,401.025 130.5,400.5C 131.402,403.974 133.068,406.974 135.5,409.5C 126.54,404.227 123.207,396.56 125.5,386.5 Z"/></g>
<g><path style="opacity:1" fill="#d7443b" d="M 138.5,411.5 C 141.425,411.46 144.091,412.293 146.5,414C 151.823,414.499 157.156,414.666 162.5,414.5C 154.065,417.588 146.065,416.588 138.5,411.5 Z"/></g>
<g><path style="opacity:1" fill="#e24c41" d="M 66.5,475.5 C 70.8241,481.298 75.4908,486.965 80.5,492.5C 75.1879,489.188 70.8546,484.855 67.5,479.5C 67.5674,478.041 67.2341,476.708 66.5,475.5 Z"/></g>
<g><path style="opacity:1" fill="#db5c5a" d="M 96.5,478.5 C 96.5,478.167 96.5,477.833 96.5,477.5C 198.185,478.829 299.852,478.829 401.5,477.5C 401.389,478.117 401.056,478.617 400.5,479C 299.139,479.827 197.805,479.66 96.5,478.5 Z"/></g>
<g><path style="opacity:1" fill="#d30e0e" d="M 412.5,470.5 C 410.571,475.591 406.904,478.758 401.5,480C 300.5,480.667 199.5,480.667 98.5,480C 97.5842,479.722 96.9175,479.222 96.5,478.5C 197.805,479.66 299.139,479.827 400.5,479C 401.056,478.617 401.389,478.117 401.5,477.5C 405.646,475.927 409.313,473.593 412.5,470.5 Z"/></g>
<g><path style="opacity:0.024" fill="#f7aba8" d="M 430.5,480.5 C 430.573,482.027 429.906,483.027 428.5,483.5C 428.5,482.833 428.5,482.167 428.5,481.5C 429.167,481.167 429.833,480.833 430.5,480.5 Z"/></g>
<g><path style="opacity:1" fill="#e63d32" d="M 428.5,481.5 C 428.5,482.167 428.5,482.833 428.5,483.5C 426.167,486.5 423.5,489.167 420.5,491.5C 420.714,489.856 420.38,488.356 419.5,487C 420.833,486.667 422.167,486.333 423.5,486C 422.549,485.282 422.383,484.449 423,483.5C 424.011,484.337 425.178,484.67 426.5,484.5C 426.739,482.533 426.406,480.699 425.5,479C 425.833,478.833 426.167,478.667 426.5,478.5C 427.176,479.602 427.842,480.602 428.5,481.5 Z"/></g>
<g><path style="opacity:0.365" fill="#f79b99" d="M 80.5,492.5 C 82.0269,492.427 83.0269,493.094 83.5,494.5C 81.9731,494.573 80.9731,493.906 80.5,492.5 Z"/></g>
<g><path style="opacity:1" fill="#e75947" d="M 418.5,492.5 C 418.5,493.167 418.167,493.5 417.5,493.5C 415.973,493.427 414.973,494.094 414.5,495.5C 411.5,496.833 408.5,498.167 405.5,499.5C 403.5,499.5 401.5,499.5 399.5,499.5C 399.577,498.25 400.244,497.417 401.5,497C 407.166,495.387 412.833,493.887 418.5,492.5 Z"/></g>
<g><path style="opacity:0.02" fill="#ffdedb" d="M 417.5,493.5 C 417.027,494.906 416.027,495.573 414.5,495.5C 414.973,494.094 415.973,493.427 417.5,493.5 Z"/></g>
<g><path style="opacity:0.918" fill="#f08781" d="M 87.5,496.5 C 91.1621,496.723 94.4954,497.723 97.5,499.5C 96.1667,499.5 94.8333,499.5 93.5,499.5C 91.5,498.5 89.5,497.5 87.5,496.5 Z"/></g>
</svg>
